<mxfile host="app.diagrams.net" modified="2021-02-24T09:54:11.489Z" agent="5.0 (Windows NT 10.0; Win64; x64) AppleWebKit/537.36 (KHTML, like Gecko) Chrome/88.0.4324.182 Safari/537.36" etag="d5nSxL8jxOiDaRdg9Ea7" version="14.4.2" type="github">
  <diagram id="iAe8gsxGXrCwNZNdeRTE" name="Page-1">
    <mxGraphModel dx="1422" dy="762" grid="1" gridSize="10" guides="1" tooltips="1" connect="1" arrows="1" fold="1" page="1" pageScale="1" pageWidth="827" pageHeight="1169" math="0" shadow="0">
      <root>
        <mxCell id="0" />
        <mxCell id="1" parent="0" />
        <mxCell id="eVwQfDWM4Ko1kOKQUrK0-20" value="写入redis" style="edgeStyle=orthogonalEdgeStyle;rounded=0;orthogonalLoop=1;jettySize=auto;html=1;" parent="1" source="eVwQfDWM4Ko1kOKQUrK0-14" target="eVwQfDWM4Ko1kOKQUrK0-19" edge="1">
          <mxGeometry relative="1" as="geometry" />
        </mxCell>
        <mxCell id="eVwQfDWM4Ko1kOKQUrK0-14" value="" style="rounded=0;whiteSpace=wrap;html=1;" parent="1" vertex="1">
          <mxGeometry x="100" y="280" width="520" height="230" as="geometry" />
        </mxCell>
        <mxCell id="eVwQfDWM4Ko1kOKQUrK0-7" style="edgeStyle=orthogonalEdgeStyle;rounded=0;orthogonalLoop=1;jettySize=auto;html=1;exitX=0.5;exitY=1;exitDx=0;exitDy=0;entryX=0.5;entryY=0;entryDx=0;entryDy=0;" parent="1" source="eVwQfDWM4Ko1kOKQUrK0-1" target="eVwQfDWM4Ko1kOKQUrK0-14" edge="1">
          <mxGeometry relative="1" as="geometry">
            <mxPoint x="360" y="250" as="targetPoint" />
            <Array as="points">
              <mxPoint x="720" y="230" />
              <mxPoint x="360" y="230" />
            </Array>
          </mxGeometry>
        </mxCell>
        <mxCell id="eVwQfDWM4Ko1kOKQUrK0-21" value="查询" style="edgeLabel;html=1;align=center;verticalAlign=middle;resizable=0;points=[];" parent="eVwQfDWM4Ko1kOKQUrK0-7" vertex="1" connectable="0">
          <mxGeometry x="0.1146" y="-2" relative="1" as="geometry">
            <mxPoint as="offset" />
          </mxGeometry>
        </mxCell>
        <mxCell id="eVwQfDWM4Ko1kOKQUrK0-23" style="edgeStyle=orthogonalEdgeStyle;rounded=0;orthogonalLoop=1;jettySize=auto;html=1;exitX=0.5;exitY=1;exitDx=0;exitDy=0;entryX=0.5;entryY=0;entryDx=0;entryDy=0;" parent="1" source="eVwQfDWM4Ko1kOKQUrK0-1" target="eVwQfDWM4Ko1kOKQUrK0-22" edge="1">
          <mxGeometry relative="1" as="geometry">
            <Array as="points">
              <mxPoint x="720" y="230" />
              <mxPoint x="960" y="230" />
            </Array>
          </mxGeometry>
        </mxCell>
        <mxCell id="eVwQfDWM4Ko1kOKQUrK0-1" value="奥丁系统" style="rounded=0;whiteSpace=wrap;html=1;" parent="1" vertex="1">
          <mxGeometry x="660" y="130" width="120" height="50" as="geometry" />
        </mxCell>
        <mxCell id="eVwQfDWM4Ko1kOKQUrK0-11" style="edgeStyle=orthogonalEdgeStyle;rounded=0;orthogonalLoop=1;jettySize=auto;html=1;exitX=0.5;exitY=1;exitDx=0;exitDy=0;entryX=0.5;entryY=0;entryDx=0;entryDy=0;" parent="1" source="eVwQfDWM4Ko1kOKQUrK0-4" target="eVwQfDWM4Ko1kOKQUrK0-10" edge="1">
          <mxGeometry relative="1" as="geometry" />
        </mxCell>
        <mxCell id="eVwQfDWM4Ko1kOKQUrK0-4" value="suggestion推词查询" style="rounded=0;whiteSpace=wrap;html=1;" parent="1" vertex="1">
          <mxGeometry x="295" y="320" width="120" height="50" as="geometry" />
        </mxCell>
        <mxCell id="eVwQfDWM4Ko1kOKQUrK0-13" value="" style="edgeStyle=orthogonalEdgeStyle;rounded=0;orthogonalLoop=1;jettySize=auto;html=1;" parent="1" source="eVwQfDWM4Ko1kOKQUrK0-5" target="eVwQfDWM4Ko1kOKQUrK0-12" edge="1">
          <mxGeometry relative="1" as="geometry" />
        </mxCell>
        <mxCell id="eVwQfDWM4Ko1kOKQUrK0-5" value="腰部推词查询" style="rounded=0;whiteSpace=wrap;html=1;" parent="1" vertex="1">
          <mxGeometry x="440" y="320" width="120" height="50" as="geometry" />
        </mxCell>
        <mxCell id="eVwQfDWM4Ko1kOKQUrK0-10" value="&lt;pre style=&quot;background-color: #2b2b2b ; color: #a9b7c6 ; font-family: &amp;#34;consolas&amp;#34; ; font-size: 12.0pt&quot;&gt;&lt;span style=&quot;color: #ffc66d&quot;&gt;待定&lt;/span&gt;&lt;/pre&gt;" style="rounded=0;whiteSpace=wrap;html=1;" parent="1" vertex="1">
          <mxGeometry x="295" y="410" width="120" height="50" as="geometry" />
        </mxCell>
        <mxCell id="eVwQfDWM4Ko1kOKQUrK0-12" value="&lt;pre style=&quot;background-color: #2b2b2b ; color: #a9b7c6 ; font-family: &amp;#34;consolas&amp;#34; ; font-size: 12.0pt&quot;&gt;&lt;span style=&quot;color: #ffc66d&quot;&gt;待定&lt;/span&gt;&lt;/pre&gt;" style="rounded=0;whiteSpace=wrap;html=1;" parent="1" vertex="1">
          <mxGeometry x="440" y="410" width="120" height="50" as="geometry" />
        </mxCell>
        <mxCell id="eVwQfDWM4Ko1kOKQUrK0-18" value="" style="edgeStyle=orthogonalEdgeStyle;rounded=0;orthogonalLoop=1;jettySize=auto;html=1;" parent="1" source="eVwQfDWM4Ko1kOKQUrK0-15" target="eVwQfDWM4Ko1kOKQUrK0-8" edge="1">
          <mxGeometry relative="1" as="geometry" />
        </mxCell>
        <mxCell id="eVwQfDWM4Ko1kOKQUrK0-15" value="qp查询" style="rounded=0;whiteSpace=wrap;html=1;" parent="1" vertex="1">
          <mxGeometry x="150" y="320" width="120" height="50" as="geometry" />
        </mxCell>
        <mxCell id="eVwQfDWM4Ko1kOKQUrK0-8" value="&lt;pre style=&quot;background-color: #2b2b2b ; color: #a9b7c6 ; font-family: &amp;#34;consolas&amp;#34; ; font-size: 12.0pt&quot;&gt;&lt;span style=&quot;color: #ffc66d&quot;&gt;cFredClient&lt;/span&gt;&lt;/pre&gt;" style="rounded=0;whiteSpace=wrap;html=1;" parent="1" vertex="1">
          <mxGeometry x="150" y="410" width="120" height="50" as="geometry" />
        </mxCell>
        <mxCell id="eVwQfDWM4Ko1kOKQUrK0-33" value="" style="edgeStyle=orthogonalEdgeStyle;rounded=0;orthogonalLoop=1;jettySize=auto;html=1;entryX=0;entryY=0.5;entryDx=0;entryDy=0;" parent="1" source="eVwQfDWM4Ko1kOKQUrK0-19" target="eVwQfDWM4Ko1kOKQUrK0-24" edge="1">
          <mxGeometry relative="1" as="geometry">
            <mxPoint x="640" y="620" as="targetPoint" />
          </mxGeometry>
        </mxCell>
        <mxCell id="eVwQfDWM4Ko1kOKQUrK0-19" value="redis" style="shape=dataStorage;whiteSpace=wrap;html=1;fixedSize=1;" parent="1" vertex="1">
          <mxGeometry x="290" y="580" width="140" height="80" as="geometry" />
        </mxCell>
        <mxCell id="eVwQfDWM4Ko1kOKQUrK0-31" style="edgeStyle=orthogonalEdgeStyle;rounded=0;orthogonalLoop=1;jettySize=auto;html=1;exitX=0.5;exitY=1;exitDx=0;exitDy=0;" parent="1" source="eVwQfDWM4Ko1kOKQUrK0-22" target="eVwQfDWM4Ko1kOKQUrK0-24" edge="1">
          <mxGeometry relative="1" as="geometry" />
        </mxCell>
        <mxCell id="eVwQfDWM4Ko1kOKQUrK0-34" style="edgeStyle=orthogonalEdgeStyle;rounded=0;orthogonalLoop=1;jettySize=auto;html=1;exitX=0.5;exitY=1;exitDx=0;exitDy=0;" parent="1" source="eVwQfDWM4Ko1kOKQUrK0-22" target="eVwQfDWM4Ko1kOKQUrK0-28" edge="1">
          <mxGeometry relative="1" as="geometry" />
        </mxCell>
        <mxCell id="eVwQfDWM4Ko1kOKQUrK0-22" value="创建工单" style="rounded=0;whiteSpace=wrap;html=1;" parent="1" vertex="1">
          <mxGeometry x="900" y="360" width="120" height="50" as="geometry" />
        </mxCell>
        <mxCell id="eVwQfDWM4Ko1kOKQUrK0-35" style="edgeStyle=orthogonalEdgeStyle;rounded=0;orthogonalLoop=1;jettySize=auto;html=1;exitX=0.5;exitY=1;exitDx=0;exitDy=0;" parent="1" source="eVwQfDWM4Ko1kOKQUrK0-24" target="eVwQfDWM4Ko1kOKQUrK0-30" edge="1">
          <mxGeometry relative="1" as="geometry">
            <Array as="points">
              <mxPoint x="767" y="710" />
              <mxPoint x="960" y="710" />
            </Array>
          </mxGeometry>
        </mxCell>
        <mxCell id="eVwQfDWM4Ko1kOKQUrK0-24" value="根据快照从redis找到快照信息" style="whiteSpace=wrap;html=1;" parent="1" vertex="1">
          <mxGeometry x="707" y="590" width="120" height="60" as="geometry" />
        </mxCell>
        <mxCell id="eVwQfDWM4Ko1kOKQUrK0-36" style="edgeStyle=orthogonalEdgeStyle;rounded=0;orthogonalLoop=1;jettySize=auto;html=1;exitX=0.5;exitY=1;exitDx=0;exitDy=0;entryX=0.5;entryY=0;entryDx=0;entryDy=0;" parent="1" edge="1">
          <mxGeometry relative="1" as="geometry">
            <mxPoint x="960" y="759" as="targetPoint" />
            <mxPoint x="1150" y="649" as="sourcePoint" />
            <Array as="points">
              <mxPoint x="1150" y="709" />
              <mxPoint x="960" y="709" />
            </Array>
          </mxGeometry>
        </mxCell>
        <mxCell id="eVwQfDWM4Ko1kOKQUrK0-28" value="保存工单" style="whiteSpace=wrap;html=1;" parent="1" vertex="1">
          <mxGeometry x="1090" y="590" width="120" height="60" as="geometry" />
        </mxCell>
        <mxCell id="eVwQfDWM4Ko1kOKQUrK0-30" value="mysql" style="shape=dataStorage;whiteSpace=wrap;html=1;fixedSize=1;" parent="1" vertex="1">
          <mxGeometry x="890" y="740" width="140" height="80" as="geometry" />
        </mxCell>
        <mxCell id="qZ3N56BSeaL7eSyhL3Ig-1" value="写入redis" style="edgeStyle=orthogonalEdgeStyle;rounded=0;orthogonalLoop=1;jettySize=auto;html=1;" edge="1" parent="1" source="qZ3N56BSeaL7eSyhL3Ig-15" target="qZ3N56BSeaL7eSyhL3Ig-17">
          <mxGeometry relative="1" as="geometry">
            <mxPoint x="350" y="1220" as="sourcePoint" />
          </mxGeometry>
        </mxCell>
        <mxCell id="qZ3N56BSeaL7eSyhL3Ig-3" style="edgeStyle=orthogonalEdgeStyle;rounded=0;orthogonalLoop=1;jettySize=auto;html=1;exitX=0.5;exitY=1;exitDx=0;exitDy=0;entryX=0.5;entryY=0;entryDx=0;entryDy=0;" edge="1" parent="1" source="qZ3N56BSeaL7eSyhL3Ig-6" target="qZ3N56BSeaL7eSyhL3Ig-14">
          <mxGeometry relative="1" as="geometry">
            <mxPoint x="350" y="990" as="targetPoint" />
            <Array as="points">
              <mxPoint x="710" y="940" />
              <mxPoint x="350" y="940" />
            </Array>
          </mxGeometry>
        </mxCell>
        <mxCell id="qZ3N56BSeaL7eSyhL3Ig-4" value="查询" style="edgeLabel;html=1;align=center;verticalAlign=middle;resizable=0;points=[];" vertex="1" connectable="0" parent="qZ3N56BSeaL7eSyhL3Ig-3">
          <mxGeometry x="0.1146" y="-2" relative="1" as="geometry">
            <mxPoint as="offset" />
          </mxGeometry>
        </mxCell>
        <mxCell id="qZ3N56BSeaL7eSyhL3Ig-5" style="edgeStyle=orthogonalEdgeStyle;rounded=0;orthogonalLoop=1;jettySize=auto;html=1;exitX=0.5;exitY=1;exitDx=0;exitDy=0;entryX=0.5;entryY=0;entryDx=0;entryDy=0;" edge="1" parent="1" source="qZ3N56BSeaL7eSyhL3Ig-6" target="qZ3N56BSeaL7eSyhL3Ig-20">
          <mxGeometry relative="1" as="geometry">
            <Array as="points">
              <mxPoint x="710" y="940" />
              <mxPoint x="950" y="940" />
            </Array>
          </mxGeometry>
        </mxCell>
        <mxCell id="qZ3N56BSeaL7eSyhL3Ig-6" value="奥丁系统" style="rounded=0;whiteSpace=wrap;html=1;" vertex="1" parent="1">
          <mxGeometry x="650" y="840" width="120" height="50" as="geometry" />
        </mxCell>
        <mxCell id="qZ3N56BSeaL7eSyhL3Ig-13" value="" style="edgeStyle=orthogonalEdgeStyle;rounded=0;orthogonalLoop=1;jettySize=auto;html=1;" edge="1" parent="1" source="qZ3N56BSeaL7eSyhL3Ig-14" target="qZ3N56BSeaL7eSyhL3Ig-15">
          <mxGeometry relative="1" as="geometry" />
        </mxCell>
        <mxCell id="qZ3N56BSeaL7eSyhL3Ig-14" value="query意图查询" style="rounded=0;whiteSpace=wrap;html=1;" vertex="1" parent="1">
          <mxGeometry x="290" y="1040" width="120" height="50" as="geometry" />
        </mxCell>
        <mxCell id="qZ3N56BSeaL7eSyhL3Ig-15" value="&lt;pre style=&quot;background-color: #2b2b2b ; color: #a9b7c6 ; font-family: &amp;#34;consolas&amp;#34; ; font-size: 12.0pt&quot;&gt;&lt;span style=&quot;color: #ffc66d&quot;&gt;cFredClient&lt;/span&gt;&lt;/pre&gt;" style="rounded=0;whiteSpace=wrap;html=1;" vertex="1" parent="1">
          <mxGeometry x="290" y="1140" width="120" height="50" as="geometry" />
        </mxCell>
        <mxCell id="qZ3N56BSeaL7eSyhL3Ig-16" value="" style="edgeStyle=orthogonalEdgeStyle;rounded=0;orthogonalLoop=1;jettySize=auto;html=1;entryX=0;entryY=0.5;entryDx=0;entryDy=0;" edge="1" parent="1" source="qZ3N56BSeaL7eSyhL3Ig-17" target="qZ3N56BSeaL7eSyhL3Ig-22">
          <mxGeometry relative="1" as="geometry">
            <mxPoint x="630" y="1330" as="targetPoint" />
          </mxGeometry>
        </mxCell>
        <mxCell id="qZ3N56BSeaL7eSyhL3Ig-17" value="redis" style="shape=dataStorage;whiteSpace=wrap;html=1;fixedSize=1;" vertex="1" parent="1">
          <mxGeometry x="280" y="1290" width="140" height="80" as="geometry" />
        </mxCell>
        <mxCell id="qZ3N56BSeaL7eSyhL3Ig-18" style="edgeStyle=orthogonalEdgeStyle;rounded=0;orthogonalLoop=1;jettySize=auto;html=1;exitX=0.5;exitY=1;exitDx=0;exitDy=0;" edge="1" parent="1" source="qZ3N56BSeaL7eSyhL3Ig-20" target="qZ3N56BSeaL7eSyhL3Ig-22">
          <mxGeometry relative="1" as="geometry" />
        </mxCell>
        <mxCell id="qZ3N56BSeaL7eSyhL3Ig-19" style="edgeStyle=orthogonalEdgeStyle;rounded=0;orthogonalLoop=1;jettySize=auto;html=1;exitX=0.5;exitY=1;exitDx=0;exitDy=0;" edge="1" parent="1" source="qZ3N56BSeaL7eSyhL3Ig-20" target="qZ3N56BSeaL7eSyhL3Ig-24">
          <mxGeometry relative="1" as="geometry" />
        </mxCell>
        <mxCell id="qZ3N56BSeaL7eSyhL3Ig-20" value="创建工单" style="rounded=0;whiteSpace=wrap;html=1;" vertex="1" parent="1">
          <mxGeometry x="890" y="1070" width="120" height="50" as="geometry" />
        </mxCell>
        <mxCell id="qZ3N56BSeaL7eSyhL3Ig-21" style="edgeStyle=orthogonalEdgeStyle;rounded=0;orthogonalLoop=1;jettySize=auto;html=1;exitX=0.5;exitY=1;exitDx=0;exitDy=0;" edge="1" parent="1" source="qZ3N56BSeaL7eSyhL3Ig-22" target="qZ3N56BSeaL7eSyhL3Ig-25">
          <mxGeometry relative="1" as="geometry">
            <Array as="points">
              <mxPoint x="757" y="1420" />
              <mxPoint x="950" y="1420" />
            </Array>
          </mxGeometry>
        </mxCell>
        <mxCell id="qZ3N56BSeaL7eSyhL3Ig-22" value="根据快照从redis找到快照信息" style="whiteSpace=wrap;html=1;" vertex="1" parent="1">
          <mxGeometry x="697" y="1300" width="120" height="60" as="geometry" />
        </mxCell>
        <mxCell id="qZ3N56BSeaL7eSyhL3Ig-23" style="edgeStyle=orthogonalEdgeStyle;rounded=0;orthogonalLoop=1;jettySize=auto;html=1;exitX=0.5;exitY=1;exitDx=0;exitDy=0;entryX=0.5;entryY=0;entryDx=0;entryDy=0;" edge="1" parent="1">
          <mxGeometry relative="1" as="geometry">
            <mxPoint x="950" y="1469" as="targetPoint" />
            <mxPoint x="1140" y="1359" as="sourcePoint" />
            <Array as="points">
              <mxPoint x="1140" y="1419" />
              <mxPoint x="950" y="1419" />
            </Array>
          </mxGeometry>
        </mxCell>
        <mxCell id="qZ3N56BSeaL7eSyhL3Ig-24" value="保存工单" style="whiteSpace=wrap;html=1;" vertex="1" parent="1">
          <mxGeometry x="1080" y="1300" width="120" height="60" as="geometry" />
        </mxCell>
        <mxCell id="qZ3N56BSeaL7eSyhL3Ig-25" value="mysql" style="shape=dataStorage;whiteSpace=wrap;html=1;fixedSize=1;" vertex="1" parent="1">
          <mxGeometry x="880" y="1450" width="140" height="80" as="geometry" />
        </mxCell>
      </root>
    </mxGraphModel>
  </diagram>
</mxfile>
